<svg width="18" height="18" viewBox="0 0 18 18" fill="none" xmlns="http://www.w3.org/2000/svg">
<path fill-rule="evenodd" clip-rule="evenodd" d="M12.375 6.68752C12.375 7.54 12.0363 8.35757 11.4335 8.96036C10.8307 9.56316 10.0132 9.90181 9.1607 9.90181C8.30822 9.90181 7.49065 9.56316 6.88785 8.96036C6.28506 8.35757 5.94641 7.54 5.94641 6.68752C5.94641 5.83504 6.28506 5.01747 6.88785 4.41468C7.49065 3.81188 8.30822 3.47324 9.1607 3.47324C10.0132 3.47324 10.8307 3.81188 11.4335 4.41468C12.0363 5.01747 12.375 5.83504 12.375 6.68752ZM10.7678 6.68752C10.7678 7.11376 10.5985 7.52255 10.2971 7.82394C9.99572 8.12534 9.58694 8.29466 9.1607 8.29466C8.73446 8.29466 8.32567 8.12534 8.02428 7.82394C7.72288 7.52255 7.55355 7.11376 7.55355 6.68752C7.55355 6.26128 7.72288 5.8525 8.02428 5.5511C8.32567 5.2497 8.73446 5.08038 9.1607 5.08038C9.58694 5.08038 9.99572 5.2497 10.2971 5.5511C10.5985 5.8525 10.7678 6.26128 10.7678 6.68752Z" fill="#5C5C5C"/>
<path fill-rule="evenodd" clip-rule="evenodd" d="M9.1607 0.258942C4.279 0.258942 0.321411 4.21653 0.321411 9.09823C0.321411 13.9799 4.279 17.9375 9.1607 17.9375C14.0424 17.9375 18 13.9799 18 9.09823C18 4.21653 14.0424 0.258942 9.1607 0.258942ZM1.92855 9.09823C1.92855 10.7777 2.5015 12.3238 3.46177 13.5516C4.13615 12.666 5.00615 11.9483 6.00381 11.4545C7.00147 10.9608 8.09978 10.7044 9.21293 10.7054C10.3117 10.7043 11.3962 10.9541 12.3838 11.4356C13.3714 11.9172 14.236 12.6178 14.9119 13.4841C15.6081 12.5709 16.0769 11.5051 16.2795 10.3748C16.482 9.24445 16.4125 8.08214 16.0766 6.98402C15.7408 5.8859 15.1483 4.88353 14.3481 4.05986C13.548 3.2362 12.5632 2.6149 11.4753 2.24739C10.3874 1.87987 9.22755 1.7767 8.09183 1.94642C6.95612 2.11614 5.87714 2.55385 4.94417 3.22336C4.01121 3.89286 3.25108 4.77491 2.72668 5.79651C2.20229 6.81811 1.9287 7.9499 1.92855 9.09823ZM9.1607 16.3304C7.50048 16.3329 5.89038 15.7617 4.60284 14.7136C5.12109 13.9717 5.81088 13.3659 6.61353 12.9479C7.41618 12.5298 8.30794 12.3119 9.21293 12.3125C10.1066 12.3118 10.9876 12.5243 11.7827 12.9324C12.5778 13.3405 13.264 13.9324 13.7844 14.6589C12.4869 15.7411 10.8503 16.3327 9.1607 16.3304Z" fill="#5C5C5C"/>
</svg>
