<svg width="20" height="16" viewBox="0 0 20 16" fill="none" xmlns="http://www.w3.org/2000/svg">
<path d="M0.808081 3.37371e-05C0.593764 3.37371e-05 0.388226 0.0843192 0.236681 0.234348C0.0851368 0.384377 0 0.587859 0 0.800032C0 1.0122 0.0851368 1.21569 0.236681 1.36572C0.388226 1.51575 0.593764 1.60003 0.808081 1.60003H2.60202L4.72242 10C4.90263 10.712 5.54667 11.2 6.28768 11.2H16.3644C17.0941 11.2 17.7139 10.72 17.9055 10.024L20 2.40003H18.3079L16.3636 9.60001H6.28687L4.16727 1.20003C4.07972 0.855415 3.87788 0.549855 3.59408 0.332284C3.31029 0.114713 2.96095 -0.00228234 2.60202 3.37371e-05H0.808081ZM15.3535 11.2C14.0242 11.2 12.9293 12.284 12.9293 13.6C12.9293 14.916 14.0242 16 15.3535 16C16.6828 16 17.7778 14.916 17.7778 13.6C17.7778 12.284 16.6828 11.2 15.3535 11.2ZM8.08081 11.2C6.75151 11.2 5.65657 12.284 5.65657 13.6C5.65657 14.916 6.75151 16 8.08081 16C9.4101 16 10.5051 14.916 10.5051 13.6C10.5051 12.284 9.4101 11.2 8.08081 11.2ZM10.5051 3.37371e-05V4.00003H8.08081L11.3131 7.20002L14.5455 4.00003H12.1212V3.37371e-05H10.5051ZM8.08081 12.8C8.53657 12.8 8.88889 13.1488 8.88889 13.6C8.88889 14.0512 8.53657 14.4 8.08081 14.4C7.62505 14.4 7.27273 14.0512 7.27273 13.6C7.27273 13.1488 7.62505 12.8 8.08081 12.8ZM15.3535 12.8C15.8093 12.8 16.1616 13.1488 16.1616 13.6C16.1616 14.0512 15.8093 14.4 15.3535 14.4C14.8978 14.4 14.5455 14.0512 14.5455 13.6C14.5455 13.1488 14.8978 12.8 15.3535 12.8Z" fill="#5C5C5C"/>
</svg>
