<svg width="47" height="36" viewBox="0 0 47 36" fill="none" xmlns="http://www.w3.org/2000/svg">
<path d="M8.10526 29.4209C8.10526 30.6772 8.60431 31.882 9.49264 32.7704C10.381 33.6587 11.5858 34.1578 12.8421 34.1578C14.0984 34.1578 15.3032 33.6587 16.1915 32.7704C17.0799 31.882 17.5789 30.6772 17.5789 29.4209C17.5789 28.1646 17.0799 26.9598 16.1915 26.0715C15.3032 25.1831 14.0984 24.6841 12.8421 24.6841C11.5858 24.6841 10.381 25.1831 9.49264 26.0715C8.60431 26.9598 8.10526 28.1646 8.10526 29.4209ZM31.7895 29.4209C31.7895 30.6772 32.2885 31.882 33.1769 32.7704C34.0652 33.6587 35.27 34.1578 36.5263 34.1578C37.7826 34.1578 38.9874 33.6587 39.8758 32.7704C40.7641 31.882 41.2632 30.6772 41.2632 29.4209C41.2632 28.1646 40.7641 26.9598 39.8758 26.0715C38.9874 25.1831 37.7826 24.6841 36.5263 24.6841C35.27 24.6841 34.0652 25.1831 33.1769 26.0715C32.2885 26.9598 31.7895 28.1646 31.7895 29.4209Z" stroke="#545454" stroke-width="2" stroke-linecap="round" stroke-linejoin="round"/>
<path d="M8.10526 29.4211H3.36842V19.9474M1 1H27.0526V29.4211M17.5789 29.4211H31.7895M41.2632 29.4211H46V15.2105M46 15.2105H27.0526M46 15.2105L38.8947 3.36842H27.0526M3.36842 10.4737H12.8421" stroke="#545454" stroke-width="2" stroke-linecap="round" stroke-linejoin="round"/>
</svg>
