<svg width="32" height="32" viewBox="0 0 32 32" fill="none" xmlns="http://www.w3.org/2000/svg">
<path d="M15.9957 10.6645C13.0578 10.6645 10.6602 13.0621 10.6602 16C10.6602 18.9379 13.0578 21.3355 15.9957 21.3355C18.9336 21.3355 21.3312 18.9379 21.3312 16C21.3312 13.0621 18.9336 10.6645 15.9957 10.6645ZM31.9982 16C31.9982 13.7905 32.0182 11.6011 31.8941 9.39566C31.7701 6.83398 31.1857 4.56048 29.3125 2.68725C27.4352 0.810019 25.1657 0.229638 22.604 0.105556C20.3946 -0.0185251 18.2052 0.00148811 15.9997 0.00148811C13.7902 0.00148811 11.6008 -0.0185251 9.39536 0.105556C6.83368 0.229638 4.56019 0.814022 2.68696 2.68725C0.809722 4.56449 0.22934 6.83398 0.105259 9.39566C-0.0188226 11.6051 0.00119056 13.7946 0.00119056 16C0.00119056 18.2054 -0.0188226 20.3989 0.105259 22.6043C0.22934 25.166 0.813725 27.4395 2.68696 29.3127C4.56419 31.19 6.83368 31.7704 9.39536 31.8944C11.6048 32.0185 13.7943 31.9985 15.9997 31.9985C18.2092 31.9985 20.3986 32.0185 22.604 31.8944C25.1657 31.7704 27.4392 31.186 29.3125 29.3127C31.1897 27.4355 31.7701 25.166 31.8941 22.6043C32.0222 20.3989 31.9982 18.2095 31.9982 16ZM15.9957 24.2094C11.4527 24.2094 7.78631 20.543 7.78631 16C7.78631 11.457 11.4527 7.79061 15.9957 7.79061C20.5387 7.79061 24.2051 11.457 24.2051 16C24.2051 20.543 20.5387 24.2094 15.9957 24.2094ZM24.5413 9.37164C23.4806 9.37164 22.6241 8.51508 22.6241 7.45438C22.6241 6.39369 23.4806 5.53713 24.5413 5.53713C25.602 5.53713 26.4586 6.39369 26.4586 7.45438C26.4589 7.70625 26.4095 7.95571 26.3133 8.18846C26.217 8.42122 26.0758 8.6327 25.8977 8.8108C25.7196 8.98889 25.5082 9.13011 25.2754 9.22635C25.0426 9.32259 24.7932 9.37196 24.5413 9.37164Z" fill="#07A081"/>
</svg>
