<svg width="203" height="326" viewBox="0 0 203 326" fill="none" xmlns="http://www.w3.org/2000/svg">
<path d="M61.0003 141.461C80.9086 141.461 97.622 154.926 102.343 173.132C108.279 195.959 107.477 220.975 133.569 233.965C156.729 241.832 165.491 251.718 165.491 278.223C165.491 299.377 147.357 321.863 123.977 324.67C97.8349 328.589 77.4865 323.465 60.9932 314.082C44.5 323.465 24.1444 328.596 -1.96223 324.67C-25.3566 321.863 -43.4828 299.299 -43.4828 278.223C-43.4828 252.285 -34.1322 241.307 -11.0147 233.788C17.4349 219.282 13.6151 193.854 19.9625 172.012C22.5719 163.175 27.9821 155.42 35.3813 149.911C42.7805 144.403 51.7697 141.438 61.0003 141.461ZM191.334 125.7C184.284 119.584 155.508 143.459 146.456 155.266C140.953 161.566 137.531 170.226 137.531 179.779C137.531 198.992 151.305 214.569 168.252 214.569C181.146 214.569 192.179 205.618 196.745 192.89C205.612 170 206.102 138.499 191.334 125.7ZM-69.348 125.7C-84.0947 138.499 -83.619 170 -74.7369 192.89C-70.1716 205.618 -59.1454 214.569 -46.2589 214.569C-29.2971 214.569 -15.5374 198.992 -15.5374 179.779C-15.5374 170.226 -18.9525 161.566 -24.4549 155.266C-33.5145 143.459 -62.2836 119.584 -69.348 125.7ZM98.8786 0.213186C170.503 12.3459 165.476 132.751 108.13 123.049C91.587 120.243 79.304 105.205 77.4368 87.2395C75.5411 68.9697 71.274 -4.44995 98.8786 0.213186ZM23.122 0.213186C50.7338 -4.45704 46.4596 68.9626 44.5639 87.2325C42.6966 105.205 30.4278 120.236 13.8849 123.042C-43.4757 132.758 -48.4954 12.3459 23.122 0.213186Z" fill="#D6EBDC" fill-opacity="0.6"/>
</svg>
