<svg width="43" height="45" viewBox="0 0 43 45" fill="none" xmlns="http://www.w3.org/2000/svg">
<path d="M27.3926 17.3571C31.5333 17.3571 34.0815 11.25 34.0815 7.39286C34.0815 4.17857 32.4889 0.321428 29.3037 0.321428C25.163 0.321428 22.6148 6.42857 22.6148 10.2857C22.6148 13.5 24.2074 17.3571 27.3926 17.3571ZM15.2889 17.3571C18.4741 17.3571 20.0667 13.5 20.0667 10.2857C20.0667 6.10714 17.5185 0 13.3778 0C10.1926 0 8.6 3.85714 8.6 7.07143C8.28148 11.25 10.8296 17.3571 15.2889 17.3571ZM38.8593 14.1429C34.7185 14.1429 31.8519 19.9286 31.8519 24.1071C31.8519 27 33.1259 29.8929 35.9926 29.8929C40.1333 29.8929 43 24.1071 43 19.9286C43 17.0357 41.4074 14.1429 38.8593 14.1429ZM11.1481 24.1071C11.1481 19.9286 7.96296 14.1429 4.14074 14.1429C1.27407 14.1429 0 17.0357 0 19.9286C0 24.1071 3.18519 29.8929 7.00741 29.8929C9.87407 29.8929 11.1481 27 11.1481 24.1071ZM21.3407 23.4643C14.9704 23.4643 6.37037 33.75 6.37037 40.8214C6.37037 44.0357 8.6 45 11.1481 45C14.9704 45 17.837 42.4286 21.3407 42.4286C24.5259 42.4286 27.3926 45 30.8963 45C33.4444 45 36.3111 44.3571 36.3111 40.8214C36.3111 33.75 27.7111 23.4643 21.3407 23.4643Z" fill="#07A081"/>
</svg>
