<svg width="45" height="36" viewBox="0 0 45 36" fill="none" xmlns="http://www.w3.org/2000/svg">
<path d="M5.77777 29.6667C5.77777 30.9338 6.28114 32.1491 7.17715 33.0451C8.07316 33.9411 9.2884 34.4445 10.5555 34.4445C11.8227 34.4445 13.0379 33.9411 13.9339 33.0451C14.83 32.1491 15.3333 30.9338 15.3333 29.6667C15.3333 28.3995 14.83 27.1843 13.9339 26.2883C13.0379 25.3923 11.8227 24.8889 10.5555 24.8889C9.2884 24.8889 8.07316 25.3923 7.17715 26.2883C6.28114 27.1843 5.77777 28.3995 5.77777 29.6667ZM29.6667 29.6667C29.6667 30.9338 30.17 32.1491 31.066 33.0451C31.962 33.9411 33.1773 34.4445 34.4444 34.4445C35.7116 34.4445 36.9268 33.9411 37.8228 33.0451C38.7188 32.1491 39.2222 30.9338 39.2222 29.6667C39.2222 28.3995 38.7188 27.1843 37.8228 26.2883C36.9268 25.3923 35.7116 24.8889 34.4444 24.8889C33.1773 24.8889 31.962 25.3923 31.066 26.2883C30.17 27.1843 29.6667 28.3995 29.6667 29.6667Z" stroke="#545454" stroke-width="2" stroke-linecap="round" stroke-linejoin="round"/>
<path d="M5.77778 29.6667H1V3.38889C1 2.75532 1.25169 2.14769 1.69969 1.69969C2.14769 1.25169 2.75532 1 3.38889 1H24.8889V15.3333H12.9444M12.9444 15.3333L17.7222 20.1111M12.9444 15.3333L17.7222 10.5556M15.3333 29.6667H29.6667M24.8889 3.38889H36.8333L44 15.3333V29.6667H39.2222" stroke="#545454" stroke-width="2" stroke-linecap="round" stroke-linejoin="round"/>
</svg>
