<svg width="323" height="335" viewBox="0 0 323 335" fill="none" xmlns="http://www.w3.org/2000/svg">
<path d="M205.763 129.214C236.867 129.214 256.007 83.75 256.007 55.0357C256.007 31.1071 244.044 2.39285 220.119 2.39285C189.015 2.39285 169.874 47.8571 169.874 76.5714C169.874 100.5 181.837 129.214 205.763 129.214ZM114.844 129.214C138.77 129.214 150.733 100.5 150.733 76.5714C150.733 45.4643 131.593 0 100.489 0C76.563 0 64.6 28.7143 64.6 52.6429C62.2074 83.75 81.3482 129.214 114.844 129.214ZM291.896 105.286C260.793 105.286 239.259 148.357 239.259 179.464C239.259 201 248.83 222.536 270.363 222.536C301.467 222.536 323 179.464 323 148.357C323 126.821 311.037 105.286 291.896 105.286ZM83.7408 179.464C83.7408 148.357 59.8148 105.286 31.1037 105.286C9.57037 105.286 0 126.821 0 148.357C0 179.464 23.9259 222.536 52.637 222.536C74.1704 222.536 83.7408 201 83.7408 179.464ZM160.304 174.679C112.452 174.679 47.8519 251.25 47.8519 303.893C47.8519 327.821 64.6 335 83.7408 335C112.452 335 133.985 315.857 160.304 315.857C184.23 315.857 205.763 335 232.081 335C251.222 335 272.756 330.214 272.756 303.893C272.756 251.25 208.156 174.679 160.304 174.679Z" fill="#D6EBDC" fill-opacity="0.8"/>
</svg>
