<svg width="10" height="10" viewBox="0 0 10 10" fill="none" xmlns="http://www.w3.org/2000/svg">
<path d="M7.14694 6.28931H6.69525L6.53516 6.13493C7.11485 5.46256 7.43345 4.60417 7.43282 3.71641C7.43282 2.98137 7.21486 2.26284 6.80649 1.65168C6.39813 1.04052 5.8177 0.564183 5.13862 0.282896C4.45953 0.00161028 3.71229 -0.071987 2.99137 0.0714114C2.27046 0.21481 1.60826 0.568763 1.08851 1.08851C0.568763 1.60826 0.21481 2.27046 0.0714114 2.99137C-0.071987 3.71229 0.00161028 4.45953 0.282896 5.13862C0.564183 5.8177 1.04052 6.39813 1.65168 6.80649C2.26284 7.21486 2.98137 7.43282 3.71641 7.43282C4.63694 7.43282 5.48313 7.09548 6.13493 6.53516L6.28931 6.69525V7.14694L9.14808 10L10 9.14808L7.14694 6.28931ZM3.71641 6.28931C2.29274 6.28931 1.14351 5.14008 1.14351 3.71641C1.14351 2.29274 2.29274 1.14351 3.71641 1.14351C5.14008 1.14351 6.28931 2.29274 6.28931 3.71641C6.28931 5.14008 5.14008 6.28931 3.71641 6.28931Z" fill="#5C5C5C"/>
</svg>
