<svg width="33" height="37" viewBox="0 0 33 37" fill="none" xmlns="http://www.w3.org/2000/svg">
<path d="M26.7568 21.1429C27.3632 21.1429 27.9519 21.2133 28.5405 21.3014V15.8571C28.5405 14.9226 28.1647 14.0263 27.4956 13.3654C26.8266 12.7046 25.9192 12.3333 24.973 12.3333H23.1892V8.80952C23.1892 3.94667 19.1935 0 14.2703 0C9.34703 0 5.35135 3.94667 5.35135 8.80952V12.3333H3.56757C2.62139 12.3333 1.71396 12.7046 1.04492 13.3654C0.375867 14.0263 0 14.9226 0 15.8571V33.4762C0 35.4319 1.58757 37 3.56757 37H17.4989C16.5892 35.4495 16.0541 33.6524 16.0541 31.7143C16.0541 25.8824 20.8524 21.1429 26.7568 21.1429ZM8.91892 8.80952C8.91892 5.88476 11.3092 3.52381 14.2703 3.52381C17.2314 3.52381 19.6216 5.88476 19.6216 8.80952V12.3333H8.91892V8.80952ZM14.2703 28.1905C13.5647 28.1905 12.8749 27.9838 12.2882 27.5966C11.7016 27.2094 11.2443 26.6591 10.9743 26.0152C10.7042 25.3713 10.6336 24.6628 10.7713 23.9792C10.9089 23.2957 11.2487 22.6678 11.7476 22.175C12.2466 21.6821 12.8822 21.3465 13.5743 21.2106C14.2663 21.0746 14.9836 21.1444 15.6355 21.4111C16.2874 21.6778 16.8446 22.1295 17.2366 22.7089C17.6286 23.2884 17.8378 23.9697 17.8378 24.6667C17.8378 26.6224 16.2503 28.1905 14.2703 28.1905ZM33 28.631L24.527 37L19.6216 31.7143L21.6908 29.6705L24.527 32.4719L30.9308 26.1467L33 28.631Z" fill="#545454"/>
</svg>
